<svg width="32" height="32" viewBox="-2 -2 65 59">
    <defs><linearGradient x1="104.953%" y1="21.921%" x2="46.569%" y2="75.234%" id="bitbucket-37"><stop stop-color="#0052CC" stop-opacity=".4" offset="7%"></stop><stop stop-color="#0052CC" offset="100%"></stop></linearGradient></defs><path d="M59.696 18.86h-18.77l-3.15 18.39h-13L9.426 55.47a2.71 2.71 0 001.75.66h40.74a2 2 0 002-1.68l5.78-35.59z" fill="url(#bitbucket-37)" fill-rule="nonzero" transform="translate(-.026 .82)"></path><path d="M2 .82a2 2 0 00-2 2.32l8.49 51.54a2.7 2.7 0 00.91 1.61 2.71 2.71 0 001.75.66l15.76-18.88H24.7l-3.47-18.39h38.44l2.7-16.53a2 2 0 00-2-2.32L2 .82z" fill="#0052CC" fill-rule="nonzero"></path>
</svg>
